<svg width="34" height="34" viewBox="0 0 34 34" fill="none" xmlns="http://www.w3.org/2000/svg">
<path d="M17 15.4062C15.2424 15.4062 13.8125 16.8362 13.8125 18.5938C13.8125 20.3513 15.2424 21.7812 17 21.7812C18.7576 21.7812 20.1875 20.3513 20.1875 18.5938C20.1875 16.8362 18.7576 15.4062 17 15.4062ZM17 19.6562C16.4142 19.6562 15.9375 19.1796 15.9375 18.5938C15.9375 18.0079 16.4142 17.5312 17 17.5312C17.5858 17.5312 18.0625 18.0079 18.0625 18.5938C18.0625 19.1796 17.5858 19.6562 17 19.6562Z" fill="#16C79A"/>
<path d="M32.9375 31.875H32.4062V22.3125H32.9375C33.3057 22.3125 33.6477 22.1218 33.8413 21.8086C34.0349 21.4954 34.0525 21.1042 33.8878 20.7749L29.6378 12.2749C29.4579 11.9149 29.09 11.6875 28.6875 11.6875H21.3725L18.0625 8.57218V6.375H22.3125C22.8993 6.375 23.375 5.89927 23.375 5.3125V1.0625C23.375 0.475734 22.8993 0 22.3125 0H17C16.4132 0 15.9375 0.475734 15.9375 1.0625V5.3125V8.57218L12.6275 11.6875H5.3125C4.91001 11.6875 4.54212 11.9149 4.36216 12.2749L0.11216 20.7749C-0.0524609 21.1042 -0.0349297 21.4954 0.158711 21.8086C0.352285 22.1218 0.694277 22.3125 1.0625 22.3125H1.59375V31.875H1.0625C0.475734 31.875 0 32.3507 0 32.9375C0 33.5243 0.475734 34 1.0625 34H32.9375C33.5243 34 34 33.5243 34 32.9375C34 32.3507 33.5243 31.875 32.9375 31.875ZM30.2812 31.875H24.9688V22.3125H30.2812V31.875ZM28.0308 13.8125L31.2183 20.1875H24.9688V17.9903L25.303 18.3049C25.5082 18.4981 25.7699 18.5938 26.0311 18.5938C26.3137 18.5938 26.5959 18.4816 26.8049 18.2595C27.2071 17.8321 27.1868 17.1597 26.7594 16.7576L23.6303 13.8125H28.0308ZM21.25 4.25H18.0625V2.125H21.25V4.25ZM5.96919 13.8125H10.3697L7.24061 16.7576C6.81328 17.1598 6.79289 17.8322 7.19505 18.2595C7.59727 18.6869 8.2697 18.7071 8.69696 18.305L9.03125 17.9904V20.1875H2.78169L5.96919 13.8125ZM3.71875 22.3125H9.03125V31.875H3.71875V22.3125ZM15.4062 31.875V27.625H18.5938V31.875H15.4062ZM20.7188 31.875V26.5625C20.7188 25.9757 20.243 25.5 19.6562 25.5H14.3438C13.757 25.5 13.2812 25.9757 13.2812 26.5625V31.875H11.1562V15.9904L17 10.4904L22.8438 15.9904V31.875H20.7188Z" fill="#16C79A"/>
<path d="M27.0938 26.5625H28.1562C28.743 26.5625 29.2188 26.0868 29.2188 25.5C29.2188 24.9132 28.743 24.4375 28.1562 24.4375H27.0938C26.507 24.4375 26.0312 24.9132 26.0312 25.5C26.0312 26.0868 26.507 26.5625 27.0938 26.5625Z" fill="#16C79A"/>
<path d="M28.1562 28.1562H27.0938C26.507 28.1562 26.0312 28.632 26.0312 29.2188C26.0312 29.8055 26.507 30.2812 27.0938 30.2812H28.1562C28.743 30.2812 29.2188 29.8055 29.2188 29.2188C29.2188 28.632 28.743 28.1562 28.1562 28.1562Z" fill="#16C79A"/>
<path d="M5.84375 26.5625H6.83984C7.42661 26.5625 7.90234 26.0868 7.90234 25.5C7.90234 24.9132 7.42661 24.4375 6.83984 24.4375H5.84375C5.25698 24.4375 4.78125 24.9132 4.78125 25.5C4.78125 26.0868 5.25698 26.5625 5.84375 26.5625Z" fill="#16C79A"/>
<path d="M6.83984 28.1562H5.84375C5.25698 28.1562 4.78125 28.632 4.78125 29.2188C4.78125 29.8055 5.25698 30.2812 5.84375 30.2812H6.83984C7.42661 30.2812 7.90234 29.8055 7.90234 29.2188C7.90234 28.632 7.42661 28.1562 6.83984 28.1562Z" fill="#16C79A"/>
</svg>
