<svg width="34" height="34" viewBox="0 0 34 34" fill="none" xmlns="http://www.w3.org/2000/svg">
<g clip-path="url(#clip0_2_65)">
<path d="M27.3478 11.8262C25.3108 11.8262 23.6522 13.4848 23.6522 15.5218C23.6522 17.5588 25.3108 19.2174 27.3478 19.2174C29.3848 19.2174 31.0434 17.5588 31.0434 15.5218C31.0434 13.4848 29.3848 11.8262 27.3478 11.8262ZM27.3478 17.7392C26.1253 17.7392 25.1304 16.7444 25.1304 15.5218C25.1304 14.2993 26.1253 13.3044 27.3478 13.3044C28.5704 13.3044 29.5652 14.2993 29.5652 15.5218C29.5652 16.7444 28.5703 17.7392 27.3478 17.7392Z" fill="#FF5E78"/>
<path d="M6.75715 11.8262C4.7186 11.8262 3.06152 13.4848 3.06152 15.5218C3.06152 17.5588 4.72013 19.2174 6.75715 19.2174C8.79416 19.2174 10.4528 17.5588 10.4528 15.5218C10.4528 13.4848 8.79562 11.8262 6.75715 11.8262ZM6.75715 17.7392C5.5346 17.7392 4.53976 16.7444 4.53976 15.5218C4.53976 14.2993 5.5346 13.3044 6.75715 13.3044C7.97969 13.3044 8.97453 14.2993 8.97453 15.5218C8.97453 16.7444 7.97962 17.7392 6.75715 17.7392Z" fill="#FF5E78"/>
<path d="M16.9999 17.7393C11.7018 17.7393 7.39124 22.0499 7.39124 27.348C7.39124 27.756 7.72239 28.0871 8.13039 28.0871C8.53839 28.0871 8.86954 27.756 8.86954 27.348C8.86954 22.8644 12.5164 19.2176 16.9999 19.2176C21.4835 19.2176 25.1304 22.8644 25.1304 27.348C25.1304 27.756 25.4615 28.0871 25.8695 28.0871C26.2775 28.0871 26.6087 27.756 26.6087 27.348C26.6087 22.0499 22.2981 17.7393 16.9999 17.7393Z" fill="#FF5E78"/>
<path d="M27.3478 20.6958C26.1312 20.6958 24.9397 21.0284 23.902 21.6567C23.5546 21.8696 23.4422 22.3234 23.6537 22.6723C23.868 23.0212 24.3203 23.132 24.6692 22.9206C25.4748 22.4313 26.4002 22.174 27.3478 22.174C30.2008 22.174 32.5218 24.4949 32.5218 27.348C32.5218 27.756 32.8529 28.0871 33.2609 28.0871C33.6689 28.0871 34.0001 27.756 34.0001 27.348C34 23.6804 31.0154 20.6958 27.3478 20.6958Z" fill="#FF5E78"/>
<path d="M10.0965 21.6552C9.06026 21.0284 7.86882 20.6958 6.65217 20.6958C2.98461 20.6958 0 23.6804 0 27.348C0 27.756 0.331153 28.0871 0.739153 28.0871C1.14715 28.0871 1.47831 27.756 1.47831 27.348C1.47824 24.4949 3.79915 22.174 6.65217 22.174C7.59976 22.174 8.5251 22.4313 9.32932 22.9191C9.67669 23.1305 10.132 23.0196 10.3449 22.6707C10.5578 22.3218 10.4454 21.868 10.0965 21.6552Z" fill="#FF5E78"/>
<path d="M16.9999 5.91309C14.1469 5.91309 11.826 8.23393 11.826 11.087C11.826 13.9401 14.1469 16.261 16.9999 16.261C19.853 16.261 22.1739 13.94 22.1739 11.087C22.1739 8.234 19.853 5.91309 16.9999 5.91309ZM16.9999 14.7826C14.9629 14.7826 13.3043 13.124 13.3043 11.087C13.3043 9.05 14.9629 7.39139 16.9999 7.39139C19.037 7.39139 20.6956 9.05 20.6956 11.087C20.6956 13.124 19.037 14.7826 16.9999 14.7826Z" fill="#FF5E78"/>
</g>
<defs>
<clipPath id="clip0_2_65">
<rect width="34" height="34" fill="white"/>
</clipPath>
</defs>
</svg>
