<svg width="34" height="34" viewBox="0 0 34 34" fill="none" xmlns="http://www.w3.org/2000/svg">
<path d="M4.58203 18.6555C4.58908 17.5908 4.7156 16.5303 4.95922 15.4939C5.0061 15.2903 5.05701 15.0878 5.11195 14.8864C5.4258 13.7174 5.873 12.5884 6.44473 11.5215L6.44938 11.5182L9.88391 7.53844C10.6423 6.94609 11.7752 6.18641 12.6464 5.75543L15.9109 4.77554L15.6739 4.43395V4.43262C15.3379 4.4625 15.0071 4.50102 14.7103 4.54285L14.7023 4.5402L10.6542 5.75543C9.78297 6.18641 8.65008 6.94609 7.89172 7.53844L4.45719 11.5182L4.45254 11.5215C3.78278 12.7736 3.28319 14.1096 2.96703 15.4939C2.72342 16.5303 2.5969 17.5908 2.58984 18.6555C2.58984 26.5432 8.97746 32.9375 16.8572 32.9375C17.1922 32.9375 17.5241 32.925 17.8533 32.9023C10.4384 32.3903 4.58203 26.208 4.58203 18.6555Z" fill="#D4E1F4"/>
<path d="M30.7594 10.4039C30.7594 10.1134 30.6732 9.82946 30.5117 9.58794C30.3503 9.34641 30.1209 9.15818 29.8524 9.04704C29.584 8.9359 29.2887 8.90685 29.0038 8.96356C28.7188 9.02027 28.4571 9.16019 28.2517 9.36563C28.0463 9.57107 27.9065 9.83281 27.8498 10.1177C27.7931 10.4027 27.8222 10.698 27.9334 10.9664C28.0446 11.2348 28.2329 11.4642 28.4744 11.6256C28.716 11.787 29 11.8731 29.2905 11.8731C29.68 11.8726 30.0534 11.7177 30.3287 11.4423C30.6041 11.1668 30.759 10.7934 30.7594 10.4039ZM29.2904 11.0763C29.1575 11.0764 29.0274 11.037 28.9169 10.9631C28.8063 10.8893 28.72 10.7843 28.6691 10.6615C28.6182 10.5386 28.6048 10.4034 28.6308 10.273C28.6567 10.1426 28.7207 10.0228 28.8147 9.92872C28.9087 9.83467 29.0285 9.77061 29.1589 9.74465C29.2893 9.71869 29.4245 9.73199 29.5474 9.78287C29.6702 9.83374 29.7753 9.91991 29.8491 10.0305C29.923 10.141 29.9625 10.271 29.9625 10.404C29.9623 10.5822 29.8915 10.7531 29.7655 10.8791C29.6395 11.0052 29.4686 11.0761 29.2904 11.0763Z" fill="#6776FF"/>
<path d="M12.2173 1.875C11.875 1.87484 11.5403 1.97621 11.2556 2.16629C10.9709 2.35636 10.749 2.6266 10.6178 2.94283C10.4867 3.25905 10.4523 3.60706 10.519 3.94283C10.5857 4.2786 10.7505 4.58706 10.9925 4.82918C11.2345 5.0713 11.5429 5.23621 11.8786 5.30305C12.2144 5.36989 12.5624 5.33567 12.8787 5.2047C13.1949 5.07373 13.4653 4.85191 13.6555 4.56728C13.8457 4.28265 13.9472 3.94801 13.9472 3.60568C13.9468 3.14694 13.7644 2.7071 13.4401 2.38265C13.1158 2.0582 12.6761 1.87563 12.2173 1.875ZM12.2173 4.53949C12.0326 4.53964 11.852 4.48501 11.6983 4.3825C11.5447 4.27999 11.4249 4.1342 11.3541 3.96359C11.2833 3.79297 11.2646 3.60519 11.3006 3.42399C11.3365 3.2428 11.4254 3.07634 11.556 2.94566C11.6865 2.81499 11.8529 2.72597 12.0341 2.68988C12.2152 2.65378 12.403 2.67223 12.5737 2.74288C12.7444 2.81354 12.8903 2.93322 12.9929 3.0868C13.0956 3.24038 13.1503 3.42096 13.1503 3.60568C13.1502 3.85315 13.0518 4.09044 12.8769 4.26551C12.702 4.44057 12.4648 4.5391 12.2173 4.53949Z" fill="#6776FF"/>
<path d="M17.1757 17.1244C17.5181 17.1246 17.8528 17.0233 18.1375 16.8333C18.4223 16.6432 18.6442 16.373 18.7754 16.0568C18.9065 15.7405 18.9409 15.3925 18.8743 15.0567C18.8076 14.721 18.6428 14.4125 18.4008 14.1703C18.1588 13.9282 17.8505 13.7633 17.5147 13.6964C17.179 13.6296 16.8309 13.6638 16.5147 13.7947C16.1984 13.9257 15.928 14.1475 15.7378 14.4321C15.5476 14.7168 15.446 15.0514 15.446 15.3938C15.4465 15.8525 15.6288 16.2923 15.9531 16.6167C16.2773 16.9412 16.717 17.1238 17.1757 17.1244ZM17.1757 14.46C17.3605 14.4598 17.5411 14.5144 17.6948 14.6169C17.8485 14.7193 17.9683 14.8651 18.0392 15.0357C18.11 15.2063 18.1286 15.3941 18.0927 15.5753C18.0568 15.7565 17.9679 15.923 17.8374 16.0537C17.7068 16.1844 17.5404 16.2734 17.3593 16.3096C17.1781 16.3457 16.9903 16.3272 16.8196 16.2566C16.6489 16.1859 16.503 16.0662 16.4004 15.9127C16.2977 15.7591 16.2429 15.5785 16.2429 15.3938C16.2431 15.1463 16.3414 14.9091 16.5163 14.734C16.6911 14.559 16.9283 14.4604 17.1757 14.46Z" fill="#6776FF"/>
<path d="M5.75363 10.7429C6.09596 10.743 6.43064 10.6416 6.71535 10.4515C7.00005 10.2615 7.22199 9.99121 7.35309 9.67499C7.4842 9.35876 7.51857 9.01075 7.45188 8.67499C7.38518 8.33922 7.22041 8.03077 6.9784 7.78866C6.73639 7.54654 6.42801 7.38164 6.09227 7.3148C5.75653 7.24796 5.40851 7.2822 5.09223 7.41317C4.77595 7.54414 4.50561 7.76596 4.3154 8.05059C4.1252 8.33521 4.02368 8.66985 4.02368 9.01218C4.0241 9.47093 4.20648 9.91078 4.53079 10.2352C4.85511 10.5597 5.29488 10.7422 5.75363 10.7429ZM5.75363 8.07837C5.93835 8.07823 6.11897 8.13287 6.27263 8.23539C6.42629 8.33791 6.54609 8.4837 6.61688 8.65432C6.68767 8.82494 6.70626 9.01272 6.67031 9.1939C6.63437 9.37509 6.54549 9.54155 6.41492 9.67222C6.28436 9.80289 6.11797 9.89189 5.93681 9.92798C5.75565 9.96408 5.56785 9.94563 5.39718 9.87497C5.22651 9.80431 5.08062 9.68463 4.97798 9.53105C4.87534 9.37747 4.82056 9.1969 4.82056 9.01218C4.82073 8.7647 4.91907 8.52739 5.094 8.35233C5.26892 8.17726 5.50615 8.07874 5.75363 8.07837Z" fill="#6776FF"/>
<path d="M16.8574 33.3361C20.749 33.3343 24.4804 31.7865 27.2308 29.0335C29.9813 26.2804 31.5254 22.5475 31.5235 18.6559C31.5235 16.9514 31.0709 14.358 30.493 12.7518L29.7434 13.0215C30.1433 14.1332 30.4879 15.7994 30.6414 17.2393L30.0666 17.2972C30.0385 17.3 30.0104 17.302 29.982 17.3033L29.7176 17.3154C29.4025 17.3286 29.0976 17.4303 28.8377 17.6088C28.5777 17.7873 28.3733 18.0354 28.2479 18.3247L28.1803 18.4789C28.0553 18.7639 27.8501 19.0064 27.5896 19.1768C27.3291 19.3471 27.0246 19.4378 26.7134 19.438H25.5881C25.4197 19.4383 25.2572 19.3759 25.1324 19.2628C25.0077 19.1497 24.9296 18.9941 24.9134 18.8264L24.8684 18.3761C24.844 18.1247 24.7628 17.882 24.6312 17.6664C24.4995 17.4508 24.3206 17.2679 24.1081 17.1314C23.9953 17.0588 23.9027 16.9591 23.8386 16.8414C23.7745 16.7237 23.7411 16.5917 23.7414 16.4577V16.0067C23.7414 15.8594 23.7727 15.7138 23.8332 15.5796C23.8937 15.4453 23.982 15.3254 24.0923 15.2278L26.0143 13.5283C26.2628 13.3078 26.4429 13.0208 26.5335 12.7012C26.6241 12.3815 26.6214 12.0427 26.5256 11.7246C26.426 11.3956 26.233 11.1027 25.9702 10.8813C25.7073 10.66 25.3858 10.5196 25.0448 10.4774L24.8507 10.4535C24.5811 10.4204 24.3332 10.2889 24.1546 10.0843C24.06 9.97617 24.0012 9.84131 23.9865 9.69836C23.9718 9.5554 24.0018 9.41141 24.0725 9.28625L25.1243 7.48339C25.9712 8.04864 26.7568 8.70074 27.4684 9.42909L28.042 8.87593C26.6911 7.47522 24.9508 6.27034 23.0092 5.39159C20.9631 4.46555 18.8359 3.97607 16.8576 3.97607C16.1205 3.98527 15.3849 4.04294 14.6554 4.14873L14.7661 4.9379C15.004 4.9047 15.2434 4.87568 15.4782 4.85157L17.1516 7.26584C17.3455 7.54431 17.4454 7.8774 17.4369 8.2166C17.4283 8.5558 17.3117 8.88342 17.1041 9.15178L16.6314 9.76557C16.5161 9.91476 16.3638 10.0313 16.1897 10.1037C16.0156 10.1761 15.8256 10.2018 15.6385 10.1784L15.1024 10.1098C14.7246 10.0613 14.3409 10.125 13.9989 10.2929C13.657 10.4607 13.372 10.7254 13.1793 11.054C13.0708 11.2391 12.9103 11.3882 12.7177 11.4828C12.5252 11.5775 12.3091 11.6135 12.0962 11.5864L10.8583 11.429C10.488 11.3808 10.1117 11.4369 9.77148 11.5908C9.4313 11.7447 9.14077 11.9904 8.9325 12.3003C8.73763 12.5882 8.63098 12.9267 8.62562 13.2743C8.62027 13.6219 8.71644 13.9635 8.90236 14.2573L9.72015 15.5499C9.87087 15.7867 10.079 15.9816 10.3252 16.1164C10.5714 16.2513 10.8477 16.3218 11.1284 16.3213C11.4003 16.3215 11.6681 16.2543 11.9077 16.1257L12.7497 15.6741C13.2188 15.4226 14.0213 15.454 14.5021 15.7427L14.9123 15.0596C14.1974 14.6302 13.082 14.5917 12.3731 14.9719L11.5311 15.4234C11.3386 15.5258 11.1146 15.5518 10.9037 15.4962C10.6929 15.4407 10.5107 15.3077 10.3936 15.1238L9.57578 13.8312C9.47276 13.6685 9.41947 13.4792 9.42243 13.2866C9.42539 13.094 9.48448 12.9064 9.59245 12.7469C9.71847 12.5593 9.89428 12.4106 10.1001 12.3175C10.306 12.2243 10.5337 12.1904 10.7578 12.2195L11.9958 12.3769C12.3633 12.4239 12.7366 12.3618 13.0692 12.1984C13.4017 12.035 13.679 11.7774 13.8664 11.4577C13.98 11.2637 14.1481 11.1073 14.35 11.0081C14.5518 10.9089 14.7783 10.8713 15.0014 10.8999L15.5375 10.9685C15.8626 11.0092 16.1927 10.9645 16.4953 10.8388C16.7978 10.713 17.0624 10.5105 17.2628 10.2513L17.7355 9.63747C18.0467 9.23536 18.2214 8.74439 18.2342 8.23607C18.247 7.72775 18.0972 7.22861 17.8066 6.81136L16.4004 4.78318C16.5615 4.77654 16.7149 4.77255 16.8574 4.77255C18.7234 4.77255 20.7369 5.23739 22.6805 6.11721C23.2895 6.39354 23.8813 6.70622 24.4527 7.05354L23.3824 8.88814C23.2289 9.15738 23.1631 9.46769 23.1941 9.77603C23.225 10.0844 23.3512 10.3754 23.555 10.6088C23.8626 10.9611 24.2894 11.1874 24.7535 11.2444L24.9476 11.2683C25.1355 11.2916 25.3126 11.369 25.4573 11.4909C25.6021 11.6129 25.7084 11.7743 25.7632 11.9554C25.8151 12.1276 25.8166 12.311 25.7676 12.484C25.7186 12.6569 25.6211 12.8123 25.4867 12.9316L23.5646 14.6311C23.3698 14.8035 23.2138 15.0153 23.1069 15.2525C23.0001 15.4896 22.9448 15.7468 22.9448 16.007V16.4579C22.9441 16.7252 23.0108 16.9883 23.1386 17.223C23.2664 17.4577 23.4512 17.6565 23.676 17.801C23.7877 17.8728 23.8817 17.969 23.951 18.0824C24.0202 18.1958 24.0629 18.3234 24.0757 18.4556L24.1207 18.9059C24.1559 19.2704 24.3258 19.6086 24.5973 19.8545C24.8687 20.1003 25.222 20.236 25.5883 20.2351H26.7132C27.1793 20.235 27.6352 20.0991 28.0253 19.8441C28.4154 19.5891 28.7228 19.226 28.91 18.7992L28.9776 18.6451C29.0438 18.4923 29.1517 18.3612 29.289 18.2669C29.4263 18.1726 29.5873 18.1189 29.7537 18.1119L30.0177 18.1C30.0606 18.098 30.1035 18.0949 30.1462 18.0906L30.7074 18.0341C30.7199 18.2532 30.7266 18.4617 30.7266 18.6564C30.7266 26.3112 24.5049 32.5393 16.8574 32.5393C9.20995 32.5393 2.98828 26.3112 2.98828 18.6559C2.99479 17.6966 3.1018 16.7407 3.30756 15.8037L4.82382 15.3105C5.14395 15.2521 5.47431 15.294 5.76976 15.4303C6.06522 15.5667 6.31137 15.791 6.47461 16.0725C6.63046 16.3413 6.82449 16.586 7.05062 16.799L8.11843 17.805C8.40378 18.0733 8.75046 18.2677 9.1282 18.3712L9.25265 18.4051C9.48204 18.4685 9.69114 18.5901 9.85964 18.7582C10.0281 18.9262 10.1503 19.135 10.2143 19.3643L10.7868 21.4318C10.8821 21.7773 11.0429 22.1013 11.2604 22.3862L12.995 24.6628C13.1333 24.8446 13.2253 25.0575 13.263 25.2829L13.7365 28.1263C13.7656 28.3039 13.8347 28.4725 13.9385 28.6196C14.0422 28.7666 14.178 28.8882 14.3355 28.9752C14.4931 29.0622 14.6683 29.1123 14.848 29.1218C15.0277 29.1313 15.2072 29.0999 15.373 29.03C15.6362 28.9195 15.8647 28.7403 16.0347 28.5111C16.2046 28.2818 16.3097 28.0111 16.3389 27.7272C16.3824 27.302 16.5517 26.8994 16.8251 26.5709L17.3277 25.9658C17.4835 25.7786 17.6004 25.5624 17.6718 25.3296L18.1882 23.6527C18.2919 23.3139 18.4988 23.016 18.78 22.8005L20.3304 21.6088C20.4718 21.5001 20.5896 21.3638 20.6767 21.2082C20.7639 21.0526 20.8185 20.8809 20.8373 20.7036C20.8561 20.5263 20.8387 20.347 20.7862 20.1765C20.7336 20.0061 20.647 19.8482 20.5316 19.7122L19.5089 18.5078C19.4619 18.4524 19.4167 18.3945 19.3726 18.333L18.9185 17.7099L18.2744 18.1793L18.7266 18.7998C18.7814 18.8763 18.8402 18.9516 18.9013 19.0236L19.924 20.2281C19.9696 20.2818 20.0038 20.3441 20.0245 20.4114C20.0453 20.4787 20.0522 20.5495 20.0447 20.6195C20.0373 20.6896 20.0158 20.7574 19.9814 20.8188C19.947 20.8802 19.9005 20.9341 19.8446 20.977L18.2949 22.1687C17.8825 22.4846 17.5791 22.9214 17.4271 23.4182L16.9105 25.0951C16.8699 25.2274 16.8034 25.3503 16.715 25.4566L16.2124 26.0617C15.8379 26.5116 15.6061 27.0629 15.5466 27.6451C15.532 27.7867 15.4796 27.9218 15.3949 28.0361C15.3101 28.1505 15.1961 28.2399 15.0649 28.295C15.0099 28.3181 14.9504 28.3283 14.8909 28.3251C14.8313 28.3219 14.7733 28.3052 14.7211 28.2763C14.6689 28.2475 14.6239 28.2072 14.5896 28.1584C14.5552 28.1097 14.5322 28.0539 14.5225 27.995L14.049 25.1516C13.9899 24.7982 13.8457 24.4645 13.6288 24.1794L11.8942 21.9029C11.7384 21.6987 11.6231 21.4665 11.5548 21.2189L10.9823 19.1518C10.8811 18.7896 10.6879 18.4597 10.4215 18.1942C10.1552 17.9288 9.82468 17.7367 9.46216 17.6367L9.33772 17.6028C9.08589 17.5338 8.8548 17.4042 8.66462 17.2253L7.59688 16.2189C7.4268 16.0588 7.28088 15.8747 7.16371 15.6726C6.91523 15.2442 6.53916 14.9041 6.08803 14.6998C5.63689 14.4955 5.1332 14.4371 4.64731 14.5329C4.63174 14.536 4.61638 14.54 4.60129 14.5449L3.53142 14.8929C3.83459 13.7882 4.26093 12.7211 4.80244 11.7116L4.10205 11.3315C2.90567 13.536 2.19141 16.2741 2.19141 18.6559C2.19047 20.5828 2.56907 22.491 3.3056 24.2716C4.04212 26.0522 5.12215 27.6703 6.48402 29.0335C7.84589 30.3967 9.46292 31.4783 11.2428 32.2165C13.0227 32.9548 14.9305 33.3352 16.8574 33.3361Z" fill="#6776FF"/>
<path d="M14.9321 17.2984L16.9403 19.9847C16.9774 20.0343 17.0255 20.0746 17.0809 20.1024C17.1363 20.1301 17.1974 20.1446 17.2594 20.1446C17.3214 20.1446 17.3825 20.1301 17.4379 20.1024C17.4933 20.0746 17.5414 20.0343 17.5785 19.9847L19.5866 17.2988C20.0275 16.7209 20.2466 16.0041 20.2042 15.2784C20.1012 13.6935 18.8076 12.4521 17.2592 12.4521C15.7108 12.4521 14.417 13.6935 14.3143 15.2777C14.2775 16.0028 14.4961 16.7179 14.9321 17.2984ZM15.1097 15.33C15.1761 14.3073 15.9985 13.249 17.2595 13.249C18.5205 13.249 19.3428 14.3071 19.4093 15.3311C19.439 15.8669 19.2755 16.3956 18.9487 16.8212L17.2595 19.0807L15.5732 16.8251C15.2488 16.3962 15.0849 15.8672 15.1097 15.33Z" fill="#6776FF"/>
<path d="M31.8033 10.3063C31.7179 8.99143 30.6436 7.96167 29.3577 7.96167C28.0718 7.96167 26.9976 8.99156 26.9122 10.3058C26.8814 10.9072 27.0625 11.5004 27.424 11.982L29.0386 14.141C29.0757 14.1906 29.1239 14.2309 29.1793 14.2586C29.2347 14.2863 29.2958 14.3008 29.3577 14.3008C29.4197 14.3008 29.4808 14.2863 29.5362 14.2586C29.5916 14.2309 29.6397 14.1906 29.6768 14.141L31.2911 11.9824C31.6569 11.5029 31.8386 10.9083 31.8033 10.3063ZM30.6532 11.5045L29.3577 13.2368L28.0651 11.5082C27.8152 11.1783 27.6886 10.7713 27.7073 10.3578C27.7585 9.57156 28.3898 8.75835 29.3577 8.75835C30.3257 8.75835 30.9571 9.57156 31.0082 10.3587C31.0308 10.7708 30.9049 11.1774 30.6532 11.5045Z" fill="#6776FF"/>
<path d="M10.8348 6.11013L10.4811 5.396C9.5487 5.85772 8.38553 6.64702 7.64636 7.22443L8.1369 7.85243C8.82129 7.31786 9.95743 6.54456 10.8348 6.11013Z" fill="#6776FF"/>
<path d="M2.89238 8.89614C2.85549 9.62123 3.07403 10.3363 3.50996 10.9169L5.51835 13.6032C5.55544 13.6528 5.60361 13.6931 5.659 13.7208C5.7144 13.7486 5.7755 13.763 5.83746 13.763C5.89942 13.763 5.96052 13.7486 6.01592 13.7208C6.07132 13.6931 6.11948 13.6528 6.15658 13.6032L8.16444 10.9172C8.60527 10.3392 8.82438 9.62239 8.78201 8.89674C8.67928 7.31202 7.38569 6.07056 5.8371 6.07056C4.2885 6.07056 2.99531 7.31202 2.89238 8.89614ZM5.8371 6.86743C7.09808 6.86743 7.92039 7.92555 7.98693 8.9496C8.01658 9.48541 7.85313 10.0141 7.52627 10.4397L5.8371 12.6992L4.15097 10.4436C3.82662 10.0146 3.66266 9.48568 3.68753 8.94847C3.754 7.92555 4.57631 6.86743 5.8371 6.86743Z" fill="#6776FF"/>
<path d="M12.301 0.664062C10.7527 0.664062 9.45886 1.90546 9.35607 3.48965C9.31914 4.21472 9.53768 4.92978 9.97365 5.51032L11.982 8.19666C12.0191 8.24628 12.0672 8.28657 12.1226 8.31432C12.178 8.34207 12.2391 8.35652 12.3011 8.35652C12.363 8.35652 12.4241 8.34207 12.4795 8.31432C12.5349 8.28657 12.5831 8.24628 12.6202 8.19666L14.6282 5.51072C15.069 4.93278 15.2882 4.21597 15.2458 3.49031C15.143 1.90546 13.8494 0.664062 12.301 0.664062ZM13.9902 5.03319L12.301 7.29267L10.6147 5.03711C10.2904 4.60816 10.1264 4.07919 10.1512 3.54198C10.2176 2.51932 11.0401 1.46094 12.301 1.46094C13.562 1.46094 14.3843 2.51905 14.4509 3.54304C14.4805 4.07886 14.317 4.60755 13.9902 5.03319Z" fill="#6776FF"/>
</svg>
